<?xml version="1.0" encoding="utf-8"?>
<!-- Generator: Adobe Illustrator 19.0.0, SVG Export Plug-In . SVG Version: 6.00 Build 0)  -->
<svg version="1.1" id="Layer_1" xmlns="http://www.w3.org/2000/svg" xmlns:xlink="http://www.w3.org/1999/xlink" x="0px" y="0px"
	 viewBox="-577.7 439.7 38 22" style="enable-background:new -577.7 439.7 38 22;" xml:space="preserve">
<style type="text/css">
	.st0{fill:#FFF6EC;stroke:#FFC380;stroke-width:2;stroke-linecap:round;stroke-linejoin:round;stroke-miterlimit:10;}
	.st1{enable-background:new    ;}
</style>
<polygon class="st0" points="-540.7,460.7 -568.5,460.7 -576.7,450.7 -568.5,440.7 -540.7,440.7 "/>
<g class="st1">
	<path d="M-562.7,455.5h-1.6v-6.4c0-0.8,0-1.4,0.1-1.8c-0.1,0.1-0.2,0.2-0.4,0.4c-0.1,0.1-0.7,0.6-1.5,1.3l-0.8-1l2.9-2.3h1.3V455.5
		z"/>
	<path d="M-553.9,450.5c0,1.7-0.3,3-0.8,3.9c-0.5,0.8-1.4,1.3-2.5,1.3c-1.1,0-1.9-0.4-2.5-1.3c-0.6-0.9-0.8-2.1-0.8-3.8
		c0-1.8,0.3-3.1,0.8-3.9c0.5-0.8,1.4-1.3,2.5-1.3c1.1,0,1.9,0.4,2.5,1.3C-554.2,447.6-553.9,448.9-553.9,450.5z M-559,450.5
		c0,1.4,0.1,2.3,0.4,2.9c0.3,0.6,0.7,0.9,1.3,0.9c0.6,0,1-0.3,1.3-0.9c0.3-0.6,0.4-1.6,0.4-2.9c0-1.3-0.1-2.3-0.4-2.9
		c-0.3-0.6-0.7-0.9-1.3-0.9c-0.6,0-1,0.3-1.3,0.9C-558.9,448.2-559,449.2-559,450.5z"/>
	<path d="M-545.8,450.5c0,1.7-0.3,3-0.8,3.9c-0.5,0.8-1.4,1.3-2.5,1.3c-1.1,0-1.9-0.4-2.5-1.3c-0.6-0.9-0.8-2.1-0.8-3.8
		c0-1.8,0.3-3.1,0.8-3.9c0.5-0.8,1.4-1.3,2.5-1.3c1.1,0,1.9,0.4,2.5,1.3C-546.1,447.6-545.8,448.9-545.8,450.5z M-550.9,450.5
		c0,1.4,0.1,2.3,0.4,2.9c0.3,0.6,0.7,0.9,1.3,0.9c0.6,0,1-0.3,1.3-0.9c0.3-0.6,0.4-1.6,0.4-2.9c0-1.3-0.1-2.3-0.4-2.9
		c-0.3-0.6-0.7-0.9-1.3-0.9c-0.6,0-1,0.3-1.3,0.9C-550.8,448.2-550.9,449.2-550.9,450.5z"/>
</g>
<text transform="matrix(0.9839 0 0 1 -567.998 481.6598)" class="st1"><tspan x="0" y="0" style="font-family:'OpenSans-SemiBold'; font-size:16.4507px; letter-spacing:-1;">1</tspan><tspan x="8.1" y="0" style="font-family:'OpenSans-SemiBold'; font-size:16.4507px;">0</tspan><tspan x="17.8" y="0" style="font-family:'OpenSans-SemiBold'; font-size:16.4507px;">0</tspan></text>
</svg>
