<?xml version="1.0" encoding="utf-8"?>
<!-- Generator: Adobe Illustrator 19.0.0, SVG Export Plug-In . SVG Version: 6.00 Build 0)  -->
<svg version="1.1" id="Layer_1" xmlns="http://www.w3.org/2000/svg" xmlns:xlink="http://www.w3.org/1999/xlink" x="0px" y="0px"
	 viewBox="-536.3 379.8 126 142.2" style="enable-background:new -536.3 379.8 126 142.2;" xml:space="preserve">
<style type="text/css">
	.st0{fill:#CECECE;}
	.st1{fill:#BCBCBC;stroke:#000000;stroke-miterlimit:10;}
	.st2{fill:#757575;}
	.st3{fill:#FF0000;}
	.st4{fill:#FFFFFF;}
</style>
<g>
	<g>
		<path class="st0" d="M-443.3,379.8c0,7.9,7.7,26.5,14.1,34.6c9.3,11.7,19,27.3,19,44.8c0,34.7-28.2,62.8-63,62.8s-63-28.1-63-62.8
			c0-17.6,9.5-33.1,19-44.8c6.4-8.1,14.1-26.7,14.1-34.6h43.2H-443.3z"/>
	</g>
	<path class="st1" d="M-429.3,414.4"/>
	<g>
		<path class="st2" d="M-429.2,414.4c-6.5-8.1-14.1-26.7-14.1-34.6h-7.9c0,1.7,0.6,5.9,1.1,8c2.6,10.8,9.1,24.7,14.5,31.5
			c11.5,14.5,17.2,27.5,17.2,39.9c0,30.2-24.7,54.8-55,54.8c-30.2,0-54.9-24.6-54.9-54.8c0-12.4,5.6-25.4,17.2-39.8
			c5.4-6.8,11.9-20.8,14.5-31.6c0.5-2.1,1.1-6.3,1.1-8h-7.9c0,7.9-7.7,26.5-14.1,34.6c-9.3,11.7-18.9,27.2-18.9,44.8
			c0,34.7,28.2,62.8,63,62.8s63-28.1,63-62.8C-410.4,441.6-419.9,426.1-429.2,414.4z"/>
	</g>
	<path class="st3" d="M-437.8,421.2c-5.5-6.8-11.6-19.7-14.6-30.4l0,0c-0.7-2.4-1.8-8.1-1.8-11h-3.9h-1.1h-28.1h-1.6h-3.4
		c0,2.9-1.1,8.6-1.8,11l0,0c-2.9,10.7-9,23.6-14.4,30.4c-11.1,13.9-16.6,26.3-16.6,38c0,28.5,23.3,51.8,52,51.8
		c28.6,0,52-23.2,52-51.8C-421.4,447.5-426.8,435.1-437.8,421.2z"/>
	<path class="st4" d="M-514.3,448.5c3.1-10,9.9-16.9,15.2-15.2c5.3,1.6,7.1,11.1,4,21.1c-3.1,10-9.9,16.9-15.2,15.2
		C-515.6,468-517.4,458.5-514.3,448.5z"/>
</g>
</svg>
