<?xml version="1.0" encoding="utf-8"?>
<!-- Generator: Adobe Illustrator 23.0.6, SVG Export Plug-In . SVG Version: 6.00 Build 0)  -->
<svg version="1.1" id="Layer_1" xmlns="http://www.w3.org/2000/svg" xmlns:xlink="http://www.w3.org/1999/xlink" x="0px" y="0px"
	 viewBox="0 0 125.5 142.2" style="enable-background:new 0 0 125.5 142.2;" xml:space="preserve">
<style type="text/css">
	.st0{fill:#CECECE;}
	.st1{fill:#BCBCBC;stroke:#000000;stroke-miterlimit:10;}
	.st2{fill:#757575;}
	.st3{fill:#FF0000;}
	.st4{fill:#FFFFFF;}
</style>
<g>
	<path class="st0" d="M92.8,0c0,7.9,7.5,26.5,13.9,34.6c9.3,11.7,18.9,27.3,18.9,44.8c0,34.7-28.1,62.8-62.8,62.8S0,114.1,0,79.4
		c0-17.6,9.5-33.1,18.9-44.8C25.3,26.5,32.8,7.9,32.8,0L76,0L92.8,0z"/>
</g>
<path class="st1" d="M106.6,34.6"/>
<g>
	<path class="st2" d="M106.7,34.6C100.2,26.5,92.8,7.9,92.8,0h-8c0,1.7,0.6,5.9,1.1,8c2.6,10.8,9.1,24.7,14.5,31.5
		C111.9,54,117.5,67,117.5,79.4c0,30.2-24.6,54.8-54.8,54.8C32.6,134.2,8,109.6,8,79.4C8,67,13.6,54,25.1,39.6
		C30.5,32.8,37,18.8,39.6,8c0.5-2.1,1.1-6.3,1.1-8h-8c0,7.9-7.5,26.5-13.9,34.6C9.5,46.3,0,61.8,0,79.4c0,34.7,28.1,62.8,62.8,62.8
		c34.7,0,62.8-28.1,62.8-62.8C125.5,61.8,116,46.3,106.7,34.6z"/>
</g>
<path class="st3" d="M98.1,41.4C92.6,34.6,86.5,21.7,83.5,11h0c-0.7-2.4-1.8-8.1-1.8-11h-3.9h-1.1h-28h-1.6h-3.4
	c0,2.9-1.1,8.6-1.8,11h0C39,21.7,32.9,34.6,27.5,41.4C16.4,55.3,11,67.7,11,79.4c0,28.5,23.2,51.8,51.8,51.8
	c28.5,0,51.8-23.2,51.8-51.8C114.5,67.7,109.1,55.3,98.1,41.4z"/>
<ellipse transform="matrix(0.2927 -0.9562 0.9562 0.2927 -46.2071 80.6742)" class="st4" cx="31.4" cy="71.6" rx="19" ry="10"/>
</svg>
