<?xml version="1.0" encoding="utf-8"?>
<!-- Generator: Adobe Illustrator 19.0.0, SVG Export Plug-In . SVG Version: 6.00 Build 0)  -->
<svg version="1.1" id="Layer_1" xmlns="http://www.w3.org/2000/svg" xmlns:xlink="http://www.w3.org/1999/xlink" x="0px" y="0px"
	 viewBox="-501.6 200.5 161.1 161.1" style="enable-background:new -501.6 200.5 161.1 161.1;" xml:space="preserve">
<style type="text/css">
	.st0{fill:#E9FBFF;}
	.st1{fill:#FFFFFF;}
</style>
<g id="XMLID_92_">
	<g id="XMLID_15_">
		<path id="XMLID_95_" class="st0" d="M-415.9,282.1c-0.2,0.3-0.4,0.5-0.6,0.8c-0.9,1.2-1.9,2.3-2.8,3.5c-0.2,0.3-0.5,0.6-0.8,0.8
			c-0.5,0.4-1.1,0.6-1.7,0.6c-0.2,0-0.6,0-0.6,0c-0.4,0-0.8-0.2-1.2-0.4c-0.3-0.2-0.6-0.4-0.9-0.7c-0.8-0.6-2.2-1.8-2.5-2
			c-0.1,0-0.1-0.1,0-0.2c1.5-1.4,2.4-3,3.2-4.9c0.1,0,0.1,0,0.1,0c0.5,0.3,1.1,0.1,1.5-0.3c0.4-0.5,0.7-0.9,1.1-1.4
			c0-0.1,0.1-0.1,0.1-0.2c-0.1,0-0.2,0-0.3-0.1c-0.3-0.2-0.4-0.6-0.2-0.9c0.1-0.1,0.2-0.2,0.3-0.4c0.4-0.5,0.7-0.9,1.1-1.4
			c0.3-0.4,0.9-0.5,1.3-0.1c0.7,0.6,1.4,1.2,2.2,1.7c0.8,0.7,1.7,1.4,2.5,2c0.1,0.1,0.2,0.2,0.4,0.3c0-0.1,0.1-0.1,0.1-0.2
			c0.2-0.4,0.6-0.7,0.9-1c0.3-0.2,0.6-0.3,0.9-0.2c0.4,0.1,0.6,0.4,0.6,0.8c0,0.3-0.1,0.6-0.4,0.8c-0.2,0.2-0.5,0.3-0.8,0.4
			c-0.3,0.1-0.6,0.1-0.9,0.1l0,0c0,0.3-0.1,0.5-0.3,0.7c-0.3,0.3-0.6,0.7-0.8,1.1c-0.2,0.2-0.4,0.5-0.6,0.7
			C-415.2,282.6-415.8,282.4-415.9,282.1C-415.9,282.1-415.9,282-415.9,282.1C-415.9,282-415.9,282-415.9,282.1z M-413.3,279.1
			c-0.1,0.1,0,0.1,0.1,0.1s0.3,0,0.4,0c0.3-0.1,0.6-0.2,0.9-0.3c0.3-0.1,0.4-0.4,0.2-0.7c-0.1-0.2-0.5-0.3-0.7-0.1
			C-412.7,278.4-413,278.7-413.3,279.1z"/>
		<path id="XMLID_94_" class="st0" d="M-424.5,279.4c-0.3-0.2-0.6-0.3-0.9-0.5c-0.3-0.2-0.6-0.3-0.9-0.4c-0.7-0.1-1.3-0.1-1.9,0.2
			c-0.7,0.4-1.2,0.9-1.4,1.7c-0.2,0.7-0.2,1.5,0.2,2.2c0.2,0.5,0.6,0.9,1,1.2c0.1,0.1,0.3,0.2,0.4,0.3s0.1,0.1,0.2,0
			c0.4-0.4,0.8-0.8,1.2-1.2c0.6-0.7,1.2-1.4,1.6-2.3C-424.9,280.2-424.5,279.4-424.5,279.4z"/>
		<path id="XMLID_93_" class="st1" d="M-420,275.7c-0.4,0.5-0.7,0.9-1.1,1.4c0,0.1-0.1,0.1,0,0.2c0,0.1,0.1,0.1,0.2,0
			c0.1,0,0.3-0.1,0.4-0.1l0.3-0.1c0.3-0.1,0.5,0.1,0.5,0.3c0,0.1,0,0.3-0.1,0.4c0,0.1,0,0.3,0,0.4c0,0.2,0.2,0.4,0.4,0.3
			c0.2,0,0.3-0.1,0.5-0.2c0.1,0,0.2-0.1,0.3-0.1c0.3-0.1,0.4,0.1,0.4,0.3c0,0.2,0,0.3-0.1,0.5c0,0.1,0,0.1,0,0.2
			c0,0.2,0,0.4,0.2,0.5c0.1,0,0.2,0,0.3,0c0.2,0,0.3-0.1,0.5-0.2c0.1,0,0.2-0.1,0.3-0.1c0.2,0,0.3,0.1,0.3,0.3c0,0.2,0,0.3,0,0.5
			c0,0.1,0,0.2,0,0.3c0,0.2,0.3,0.4,0.4,0.4c0.2-0.1,0.3-0.1,0.5-0.2c0.1,0,0.1-0.1,0.2-0.1c0.2-0.1,0.4,0.1,0.4,0.3
			c0,0.1,0,0.3-0.1,0.4c0,0.1,0,0.3,0,0.4s0,0.1,0.1,0.2c0.1,0,0.1,0,0.2-0.1c0.4-0.5,0.8-0.9,1.1-1.4c0.1-0.1,0.2-0.2,0.2-0.3
			c0.2-0.2,0.2-0.5-0.1-0.7c-0.5-0.4-1-0.8-1.5-1.2c-0.7-0.6-1.4-1.1-2.1-1.7c-0.5-0.4-1-0.8-1.5-1.2c-0.2-0.2-0.5-0.2-0.7,0.1
			C-419.9,275.5-419.9,275.6-420,275.7L-420,275.7z"/>
	</g>
</g>
</svg>
