<?xml version="1.0" encoding="utf-8"?>
<!-- Generator: Adobe Illustrator 19.0.0, SVG Export Plug-In . SVG Version: 6.00 Build 0)  -->
<svg version="1.1" id="Layer_1" xmlns="http://www.w3.org/2000/svg" xmlns:xlink="http://www.w3.org/1999/xlink" x="0px" y="0px"
	 viewBox="0 0 57.9 57.9" style="enable-background:new 0 0 57.9 57.9;" xml:space="preserve">
<style type="text/css">
	.st0{fill:#E9FBFF;}
	.st1{fill:#FFFFFF;}
</style>
<g id="XMLID_92_">
	<g id="XMLID_15_">
		<path id="XMLID_95_" class="st0" d="M34.1,30c-0.2,0.3-0.4,0.5-0.6,0.8c-0.9,1.2-1.9,2.3-2.8,3.5c-0.2,0.3-0.5,0.6-0.8,0.8
			c-0.5,0.4-1.1,0.6-1.7,0.6c-0.2,0-0.6,0-0.6,0c-0.4,0-0.8-0.2-1.2-0.4c-0.3-0.2-0.6-0.4-0.9-0.7c-0.8-0.6-2.2-1.8-2.5-2
			c-0.1,0-0.1-0.1,0-0.2c1.5-1.4,2.4-3,3.2-4.9c0.1,0,0.1,0,0.1,0c0.5,0.3,1.1,0.1,1.5-0.3c0.4-0.5,0.7-0.9,1.1-1.4
			c0-0.1,0.1-0.1,0.1-0.2c-0.1,0-0.2,0-0.3-0.1c-0.3-0.2-0.4-0.6-0.2-0.9c0.1-0.1,0.2-0.2,0.3-0.4c0.4-0.5,0.7-0.9,1.1-1.4
			c0.3-0.4,0.9-0.5,1.3-0.1c0.7,0.6,1.4,1.2,2.2,1.7c0.8,0.7,1.7,1.4,2.5,2c0.1,0.1,0.2,0.2,0.4,0.3c0-0.1,0.1-0.1,0.1-0.2
			c0.2-0.4,0.6-0.7,0.9-1c0.3-0.2,0.6-0.3,0.9-0.2c0.4,0.1,0.6,0.4,0.6,0.8c0,0.3-0.1,0.6-0.4,0.8c-0.2,0.2-0.5,0.3-0.8,0.4
			c-0.3,0.1-0.6,0.1-0.9,0.1c0,0,0,0,0,0c0,0.3-0.1,0.5-0.3,0.7c-0.3,0.3-0.6,0.7-0.8,1.1c-0.2,0.2-0.4,0.5-0.6,0.7
			C34.8,30.5,34.2,30.3,34.1,30C34.1,30,34.1,29.9,34.1,30C34.1,29.9,34.1,29.9,34.1,30z M36.7,27c-0.1,0.1,0,0.1,0.1,0.1
			c0.1,0,0.3,0,0.4,0c0.3-0.1,0.6-0.2,0.9-0.3c0.3-0.1,0.4-0.4,0.2-0.7c-0.1-0.2-0.5-0.3-0.7-0.1C37.3,26.3,37,26.6,36.7,27z"/>
		<path id="XMLID_94_" class="st0" d="M25.5,27.3c-0.3-0.2-0.6-0.3-0.9-0.5c-0.3-0.2-0.6-0.3-0.9-0.4c-0.7-0.1-1.3-0.1-1.9,0.2
			c-0.7,0.4-1.2,0.9-1.4,1.7c-0.2,0.7-0.2,1.5,0.2,2.2c0.2,0.5,0.6,0.9,1,1.2c0.1,0.1,0.3,0.2,0.4,0.3c0.1,0.1,0.1,0.1,0.2,0
			c0.4-0.4,0.8-0.8,1.2-1.2c0.6-0.7,1.2-1.4,1.6-2.3C25.1,28.1,25.5,27.3,25.5,27.3z"/>
		<path id="XMLID_93_" class="st1" d="M30,23.6c-0.4,0.5-0.7,0.9-1.1,1.4c0,0.1-0.1,0.1,0,0.2c0,0.1,0.1,0.1,0.2,0
			c0.1,0,0.3-0.1,0.4-0.1l0.3-0.1c0.3-0.1,0.5,0.1,0.5,0.3c0,0.1,0,0.3-0.1,0.4c0,0.1,0,0.3,0,0.4c0,0.2,0.2,0.4,0.4,0.3
			c0.2,0,0.3-0.1,0.5-0.2c0.1,0,0.2-0.1,0.3-0.1c0.3-0.1,0.4,0.1,0.4,0.3c0,0.2,0,0.3-0.1,0.5c0,0.1,0,0.1,0,0.2
			c0,0.2,0,0.4,0.2,0.5c0.1,0,0.2,0,0.3,0c0.2,0,0.3-0.1,0.5-0.2c0.1,0,0.2-0.1,0.3-0.1c0.2,0,0.3,0.1,0.3,0.3c0,0.2,0,0.3,0,0.5
			c0,0.1,0,0.2,0,0.3c0,0.2,0.3,0.4,0.4,0.4c0.2-0.1,0.3-0.1,0.5-0.2c0.1,0,0.1-0.1,0.2-0.1c0.2-0.1,0.4,0.1,0.4,0.3
			c0,0.1,0,0.3-0.1,0.4c0,0.1,0,0.3,0,0.4c0,0.1,0,0.1,0.1,0.2c0.1,0,0.1,0,0.2-0.1c0.4-0.5,0.8-0.9,1.1-1.4
			c0.1-0.1,0.2-0.2,0.2-0.3c0.2-0.2,0.2-0.5-0.1-0.7c-0.5-0.4-1-0.8-1.5-1.2c-0.7-0.6-1.4-1.1-2.1-1.7c-0.5-0.4-1-0.8-1.5-1.2
			c-0.2-0.2-0.5-0.2-0.7,0.1C30.1,23.4,30.1,23.5,30,23.6L30,23.6z"/>
	</g>
</g>
</svg>
