<?xml version="1.0" encoding="utf-8"?>
<!-- Generator: Adobe Illustrator 19.0.0, SVG Export Plug-In . SVG Version: 6.00 Build 0)  -->
<svg version="1.1" id="Layer_1" xmlns="http://www.w3.org/2000/svg" xmlns:xlink="http://www.w3.org/1999/xlink" x="0px" y="0px"
	 viewBox="0 0 137.5 68.6" style="enable-background:new 0 0 137.5 68.6;" xml:space="preserve">
<style type="text/css">
	.st0{fill:#FF0000;}
	.st1{fill:#FFFFFF;}
</style>
<g id="XMLID_26_">
	<g id="XMLID_1_">
		<path id="XMLID_2_" class="st0" d="M20.3,65.1c0,0.7-0.2,1.2-0.7,1.6s-1.2,0.6-2.1,0.6s-1.6-0.1-2.1-0.4v-1.2
			c0.4,0.2,0.7,0.3,1.1,0.4c0.4,0.1,0.8,0.1,1.1,0.1c0.5,0,0.9-0.1,1.1-0.3s0.4-0.4,0.4-0.8c0-0.3-0.1-0.5-0.3-0.7s-0.7-0.4-1.4-0.7
			c-0.7-0.3-1.2-0.6-1.5-1c-0.3-0.4-0.4-0.8-0.4-1.3c0-0.6,0.2-1.2,0.7-1.5s1.1-0.6,1.8-0.6c0.7,0,1.5,0.2,2.2,0.5l-0.4,1
			c-0.7-0.3-1.3-0.4-1.8-0.4c-0.4,0-0.7,0.1-0.9,0.3c-0.2,0.2-0.3,0.4-0.3,0.7c0,0.2,0,0.4,0.1,0.5s0.2,0.3,0.4,0.4
			c0.2,0.1,0.5,0.3,1,0.5c0.6,0.2,1,0.5,1.2,0.7c0.3,0.2,0.5,0.4,0.6,0.7S20.3,64.8,20.3,65.1z"/>
		<path id="XMLID_4_" class="st0" d="M31.2,67.2l-0.8-2.1h-3l-0.8,2.1h-1.3l2.9-7.8h1.4l2.9,7.8H31.2z M30.1,64l-0.7-2.1
			c-0.1-0.1-0.1-0.4-0.2-0.7c-0.1-0.3-0.2-0.5-0.2-0.7c-0.1,0.4-0.2,0.9-0.4,1.4l-0.7,2H30.1z"/>
		<path id="XMLID_7_" class="st0" d="M41.2,60.4c-0.7,0-1.3,0.3-1.7,0.8s-0.6,1.2-0.6,2.1c0,0.9,0.2,1.7,0.6,2.2
			c0.4,0.5,1,0.7,1.7,0.7c0.3,0,0.6,0,1-0.1s0.6-0.1,1-0.3V67c-0.6,0.2-1.3,0.3-2.1,0.3c-1.1,0-2-0.3-2.6-1s-0.9-1.7-0.9-2.9
			c0-0.8,0.1-1.5,0.4-2.1c0.3-0.6,0.7-1.1,1.3-1.4c0.6-0.3,1.2-0.5,2-0.5c0.8,0,1.5,0.2,2.2,0.5l-0.5,1.1c-0.3-0.1-0.5-0.2-0.8-0.3
			C41.8,60.5,41.5,60.4,41.2,60.4z"/>
		<path id="XMLID_9_" class="st0" d="M51,64.1v3.1h-1.3v-7.7h2.2c1,0,1.7,0.2,2.2,0.6c0.5,0.4,0.7,0.9,0.7,1.7c0,1-0.5,1.6-1.5,2.1
			l2.2,3.4h-1.4l-1.9-3.1H51z M51,63.1h0.9c0.6,0,1-0.1,1.3-0.3c0.3-0.2,0.4-0.5,0.4-1c0-0.4-0.1-0.8-0.4-0.9
			c-0.3-0.2-0.7-0.3-1.3-0.3H51V63.1z"/>
		<path id="XMLID_12_" class="st0" d="M66.2,67.2l-0.8-2.1h-3l-0.8,2.1h-1.3l2.9-7.8h1.4l2.9,7.8H66.2z M65.1,64l-0.7-2.1
			c-0.1-0.1-0.1-0.4-0.2-0.7c-0.1-0.3-0.2-0.5-0.2-0.7c-0.1,0.4-0.2,0.9-0.4,1.4l-0.7,2H65.1z"/>
		<path id="XMLID_15_" class="st0" d="M76.7,67.2l-2.2-6.5h0c0.1,1,0.1,1.9,0.1,2.7v3.8h-1.1v-7.7h1.8l2.1,6.2h0l2.2-6.2h1.8v7.7
			h-1.2v-3.8c0-0.4,0-0.9,0-1.5s0-1,0.1-1.1h0l-2.3,6.4H76.7z"/>
		<path id="XMLID_17_" class="st0" d="M92.7,67.2h-4.4v-7.7h4.4v1.1h-3.1v2.1h2.9v1.1h-2.9v2.4h3.1V67.2z"/>
		<path id="XMLID_19_" class="st0" d="M106,67.2h-1.5l-3.8-6.2h0l0,0.3c0,0.7,0.1,1.3,0.1,1.8v4h-1.1v-7.7h1.5l3.8,6.1h0
			c0-0.1,0-0.4,0-0.9s0-0.9,0-1.2v-4.1h1.2V67.2z"/>
		<path id="XMLID_21_" class="st0" d="M115,67.2h-1.3v-6.6h-2.3v-1.1h5.8v1.1H115V67.2z"/>
		<path id="XMLID_23_" class="st0" d="M129.7,63.3c0,1.3-0.3,2.2-0.9,2.9c-0.6,0.7-1.5,1-2.7,1c-1.2,0-2.1-0.3-2.7-1
			c-0.6-0.7-0.9-1.7-0.9-3s0.3-2.3,0.9-2.9c0.6-0.7,1.5-1,2.7-1c1.1,0,2,0.3,2.7,1C129.4,61.1,129.7,62.1,129.7,63.3z M123.8,63.3
			c0,1,0.2,1.7,0.6,2.2c0.4,0.5,1,0.7,1.7,0.7c0.8,0,1.3-0.2,1.7-0.7c0.4-0.5,0.6-1.2,0.6-2.2c0-0.9-0.2-1.7-0.6-2.2
			c-0.4-0.5-0.9-0.7-1.7-0.7c-0.8,0-1.3,0.2-1.7,0.7C124,61.7,123.8,62.4,123.8,63.3z"/>
	</g>
	<g id="XMLID_73_">
		<g id="XMLID_92_">
			<path id="XMLID_95_" class="st0" d="M53.7,23.3c-0.4,1.2-0.7,2.5-1.1,3.7c-1.7,5.6-3.4,11.1-5,16.7c-0.4,1.4-0.9,2.8-1.7,4.1
				c-1.3,2.1-3,3.7-5.2,4.8c-0.6,0.3-2,0.8-2.1,0.8c-1.6,0.5-3.3,0.6-5,0.5c-1.5-0.1-2.9-0.6-4.3-1c-3.8-1.1-10.5-3.3-12-3.7
				C17,49,16.9,48.8,17,48.6c3.4-7,4.4-14.5,4.5-22.3c0.3,0,0.3,0,0.4,0.1c2.2,0.2,4.3-1.2,5-3.3c0.7-2.2,1.3-4.3,2-6.5
				c0.1-0.3,0.1-0.5,0.2-0.8c-0.4,0.1-0.7,0.2-1.1,0.2c-1.4-0.1-2.3-1.7-1.9-3c0.2-0.6,0.3-1.1,0.5-1.7c0.7-2.2,1.3-4.4,2-6.6
				c0.6-2,2.6-3.1,4.6-2.5C36.6,3,40,4,43.4,5.1c4,1.2,8.1,2.4,12.1,3.6c0.6,0.2,1.2,0.4,1.8,0.5c0-0.3,0-0.6,0.1-0.9
				c0.3-1.8,0.9-3.5,1.8-5.1c0.6-1.2,1.7-1.8,3-1.9c1.4-0.1,2.8,0.7,3.5,2c0.6,1.2,0.6,2.4-0.1,3.6c-0.6,1-1.6,1.7-2.5,2.5
				c-0.9,0.7-1.9,1.4-3,1.8c0,0.1,0,0.1,0,0.2c0.5,1,0.5,2,0.2,3c-0.5,1.7-1,3.3-1.5,5c-0.3,1.1-0.6,2.2-1,3.3
				c-0.6,1.6-2.8,1.9-3.7,0.8c-0.1-0.1-0.2-0.2-0.3-0.3C53.7,23.1,53.7,23.2,53.7,23.3z M59.1,9c-0.1,0.5,0.1,0.6,0.5,0.4
				c0.5-0.2,0.9-0.4,1.3-0.7c1-0.7,2-1.4,2.8-2.4c0.8-0.8,0.7-2.1-0.2-2.8c-0.8-0.7-2.1-0.5-2.8,0.6C60,5.5,59.3,7.1,59.1,9z"/>
			<path id="XMLID_94_" class="st0" d="M18.9,25.9c-1.3-0.1-2.5-0.3-3.8-0.4c-1.3-0.2-2.5-0.2-3.8,0c-2.6,0.4-4.8,1.6-6.5,3.6
				c-2,2.3-3,5-2.8,8.1c0.2,3,1.4,5.5,3.7,7.5c1.6,1.4,3.4,2.2,5.4,2.7c0.7,0.2,1.3,0.4,1.9,0.6c0.3,0.1,0.4,0,0.6-0.2
				c1-2,1.9-4,2.6-6c1.2-3.4,2.1-6.9,2.5-10.5C18.9,29.6,19,26.1,18.9,25.9z"/>
			<path id="XMLID_93_" class="st1" d="M29.8,6.4c-0.7,2.2-1.3,4.5-2,6.7c-0.1,0.3-0.1,0.6,0.1,0.8c0.3,0.2,0.5,0,0.7-0.1
				c0.4-0.3,0.8-0.7,1.2-1.1l0.9-1c0.8-0.9,2-0.5,2.1,0.5c0.2,0.5,0.3,1,0.4,1.5c0.1,0.5,0.2,1,0.4,1.5c0.3,0.7,1.3,1,1.9,0.6
				c0.6-0.4,1-0.9,1.6-1.4c0.3-0.3,0.6-0.5,0.9-0.7c0.8-0.6,1.6-0.2,1.9,0.6c0.2,0.6,0.3,1.2,0.4,1.8c0.1,0.2,0.1,0.5,0.2,0.7
				c0.3,0.9,0.6,1.3,1.6,1.3c0.3,0,0.7-0.2,1-0.5c0.5-0.4,0.9-0.9,1.4-1.3c0.3-0.2,0.6-0.5,0.9-0.6c0.6-0.3,1.3-0.1,1.6,0.5
				c0.2,0.6,0.4,1.2,0.5,1.8c0.1,0.4,0.2,0.9,0.3,1.3c0.1,0.7,1.6,1.2,2.1,0.7c0.5-0.5,1.1-1,1.6-1.5c0.2-0.2,0.4-0.4,0.6-0.5
				c0.8-0.5,1.7-0.3,2,0.6c0.2,0.5,0.2,1,0.4,1.4c0.1,0.5,0.3,1.1,0.4,1.6c0.1,0.2,0.2,0.5,0.6,0.5c0.3,0,0.5-0.3,0.5-0.6
				c0.7-2.2,1.3-4.5,2-6.7c0.1-0.5,0.3-0.9,0.4-1.4c0.3-1-0.2-2-1.2-2.4c-2.4-0.8-4.9-1.5-7.3-2.2c-3.4-1-6.7-2-10.1-3
				c-2.4-0.7-4.9-1.5-7.3-2.2c-1.2-0.4-2.1,0.2-2.5,1.3c-0.1,0.4-0.2,0.7-0.3,1.1L29.8,6.4z"/>
		</g>
		<path id="XMLID_89_" d="M99.1,26.5c0,2.7-0.7,4.7-2,6.1c-1.3,1.4-3.2,2.1-5.8,2.1c-2.5,0-4.4-0.7-5.7-2.1c-1.3-1.4-2-3.4-2-6.1
			c0-2.6,0.7-4.7,2-6c1.3-1.4,3.2-2.1,5.8-2.1c2.5,0,4.4,0.7,5.7,2.1C98.5,21.8,99.1,23.8,99.1,26.5z M88.2,26.5
			c0,3.1,1.1,4.6,3.2,4.6c1.1,0,1.9-0.4,2.4-1.1s0.8-1.9,0.8-3.5c0-1.6-0.3-2.8-0.8-3.5c-0.5-0.8-1.3-1.1-2.4-1.1
			C89.3,21.8,88.2,23.4,88.2,26.5z"/>
		<path id="XMLID_87_" d="M109,21.9c-1,0-1.8,0.4-2.4,1.2c-0.6,0.8-0.9,2-0.9,3.5c0,3.1,1.2,4.6,3.5,4.6c0.7,0,1.4-0.1,2-0.3
			c0.7-0.2,1.3-0.4,2-0.7l0,3.6c-1.3,0.6-2.8,0.9-4.5,0.9c-2.4,0-4.2-0.7-5.5-2.1c-1.3-1.4-1.9-3.4-1.9-6c0-1.6,0.3-3.1,0.9-4.3
			c0.6-1.2,1.5-2.2,2.7-2.9c1.2-0.7,2.5-1,4.1-1c1.7,0,3.4,0.4,4.9,1.1l-1.3,3.4c-0.6-0.3-1.2-0.5-1.8-0.7
			C110.3,22,109.7,21.9,109,21.9z"/>
		<path id="XMLID_85_" d="M129.9,34.5l-4.8,0l-3.1-6.1l-1.3,0.8l0,5.3l-4.3,0l0-15.9l4.3,0l0,6.9c0.2-0.4,0.7-1.1,1.3-2l3.3-4.9
			l4.7,0l-5,7.1L129.9,34.5z"/>
		<path id="XMLID_84_" d="M80.1,24.4c-0.8-1-2.2-2-4.4-3.1c-1.6-0.8-2.6-1.3-3-1.6c-0.4-0.3-0.7-0.6-0.9-0.9
			c-0.2-0.3-0.3-0.7-0.3-1.1c0-0.7,0.2-1.2,0.7-1.7c0.5-0.4,1.2-0.6,2.1-0.6c0.8,0,1.5,0.1,2.3,0.3c0.8,0.2,1.8,0.5,3,1l1.6-3.7
			c-1.2-0.5-2.3-0.9-3.4-1.2c-1.1-0.3-2.2-0.4-3.4-0.4c-2.4,0-4.3,0.6-5.6,1.7c-1.4,1.1-2,2.7-2,4.7c0,1.1,0.2,2,0.6,2.8
			c0.4,0.8,1,1.5,1.7,2.1c0.7,0.6,1.7,1.2,3.1,1.9c1.5,0.7,2.5,1.2,2.9,1.5c0.5,0.3,0.8,0.7,1.1,1c0.2,0.3,0.4,0.7,0.4,1.2
			c0,0.8-0.3,1.4-0.8,1.8c-0.6,0.4-1.4,0.6-2.4,0.6c-0.9,0-1.8-0.1-2.9-0.4c-0.6-0.2-1.2-0.4-1.9-0.7l0,0c-1.2-0.6-2.3-1-3.4-1.3
			c-1.1-0.3-2.2-0.5-3.4-0.5c-2.4,0-4.3,0.6-5.6,1.9c-1.4,1.2-2,3-2.1,5.2c0,1.2,0.2,2.2,0.6,3s1,1.6,1.7,2.3
			c0.7,0.7,1.7,1.3,3.1,2.1c1.5,0.8,2.5,1.3,2.9,1.7c0.5,0.4,0.8,0.7,1.1,1.1c0.2,0.4,0.4,0.8,0.4,1.3c0,0.9-0.3,1.5-0.8,2
			c-0.6,0.4-1.4,0.7-2.4,0.7c-0.9,0-1.8-0.2-2.9-0.5c-1.1-0.3-2.4-0.8-3.9-1.6l0,4.9c1.9,1,4,1.5,6.4,1.5c2.6,0,4.7-0.6,6.2-1.9
			c1.5-1.3,2.2-3,2.2-5.3c0-1.6-0.4-3-1.2-4.1c-0.8-1.1-2.2-2.2-4.4-3.3c-1.6-0.8-2.6-1.4-3-1.7c-0.4-0.3-0.7-0.7-0.9-1
			c-0.2-0.3-0.3-0.7-0.3-1.2c0-0.7,0.2-1.3,0.7-1.8c0.5-0.5,1.2-0.7,2.1-0.7c0.8,0,1.6,0.1,2.5,0.2c0.8,0.1,1.7,0.5,2.9,1.1l0,0
			c1.7,0.8,3.7,1.2,5.9,1.2c2.6,0,4.7-0.6,6.2-1.8c1.5-1.2,2.2-2.8,2.2-4.8C81.3,26.6,80.9,25.4,80.1,24.4z"/>
		<path id="XMLID_81_" d="M81.2,53l-0.8-3l-5.2,0l-0.8,3l-4.7,0L75,37.1l5.7,0l5.2,16L81.2,53z M79.6,46.5l-0.7-2.6
			c-0.2-0.6-0.4-1.3-0.6-2.2c-0.2-0.9-0.4-1.6-0.4-2c-0.1,0.4-0.2,1-0.4,1.8c-0.2,0.8-0.6,2.5-1.3,5L79.6,46.5z"/>
		<path id="XMLID_79_" d="M103.6,53.1l-5.6,0l-5.8-11.2l-0.1,0c0.1,1.8,0.2,3.1,0.2,4l0,7.2l-3.8,0l0-15.9l5.6,0l5.8,11h0.1
			c-0.1-1.6-0.1-2.9-0.1-3.9l0-7.2l3.8,0L103.6,53.1z"/>
		<path id="XMLID_77_" d="M115,53.1l-4.3,0l0-12.4l-3.9,0l0-3.5l12,0l0,3.5l-3.9,0L115,53.1z"/>
		<path id="XMLID_74_" d="M130.8,53.1l-0.8-3l-5.2,0l-0.8,3l-4.7,0l5.2-15.9l5.7,0l5.2,16L130.8,53.1z M129.2,46.6l-0.7-2.6
			c-0.2-0.6-0.4-1.3-0.6-2.2c-0.2-0.9-0.4-1.6-0.4-2c-0.1,0.4-0.2,1-0.4,1.8c-0.2,0.8-0.6,2.5-1.3,5L129.2,46.6z"/>
	</g>
</g>
</svg>
